<svg width="48" height="50" viewBox="0 0 48 50" fill="none" xmlns="http://www.w3.org/2000/svg">
<path d="M9 26.0013C9.54845 25.2161 10.0912 24.4728 10.5903 23.701C10.7155 23.5075 10.7754 23.2096 10.7351 22.9827C10.5976 22.2073 10.4165 21.4384 10.2218 20.6749C10.1444 20.3715 10.1997 20.1996 10.4778 20.0349C11.1563 19.6332 11.8277 19.2157 12.4713 18.761C12.6707 18.6202 12.8496 18.3574 12.903 18.1199C13.0799 17.3355 13.2098 16.5393 13.3263 15.743C13.3679 15.4583 13.4868 15.3642 13.7594 15.3239C14.5229 15.2112 15.2801 15.0563 16.0429 14.9367C16.387 14.8827 16.6292 14.7511 16.8145 14.4278C17.1982 13.7583 17.6487 13.1273 18.0421 12.463C18.1965 12.2024 18.3616 12.1425 18.6422 12.2104C19.3763 12.3881 20.1231 12.517 20.8502 12.7185C21.2437 12.8276 21.5321 12.7504 21.8479 12.5161C22.5461 11.9984 23.2687 11.5136 24.0034 11C24.7534 11.5251 25.4998 12.0314 26.2265 12.5646C26.5025 12.7671 26.7622 12.8226 27.0939 12.7393C27.8422 12.5513 28.6035 12.4138 29.3494 12.2171C29.6709 12.1324 29.8232 12.2365 29.9796 12.4962C30.378 13.1577 30.8167 13.7952 31.2082 14.4606C31.3751 14.7441 31.5895 14.8728 31.9005 14.923C32.6791 15.0483 33.4518 15.211 34.2322 15.3217C34.5379 15.365 34.6375 15.4899 34.6799 15.783C34.7901 16.547 34.9492 17.3037 35.0683 18.0665C35.1198 18.3959 35.2497 18.6232 35.5525 18.8C36.2334 19.1974 36.8821 19.6493 37.5589 20.0543C37.8016 20.1995 37.856 20.3562 37.7927 20.6179C37.6071 21.384 37.4137 22.1501 37.2812 22.9261C37.2374 23.1826 37.2961 23.5158 37.4344 23.7335C37.9184 24.4956 38.4576 25.2227 39 25.9974C38.4672 26.7606 37.9169 27.5157 37.4101 28.2989C37.2848 28.4924 37.2258 28.7903 37.2654 29.0177C37.3978 29.7773 37.5691 30.5319 37.766 31.2779C37.8561 31.6192 37.8025 31.8133 37.4849 31.9973C36.8171 32.3843 36.1605 32.795 35.5302 33.2397C35.3305 33.3806 35.1506 33.6429 35.097 33.8802C34.9201 34.6646 34.7901 35.4608 34.6741 36.2571C34.6327 36.542 34.5116 36.6367 34.2416 36.6793C33.4143 36.8098 32.5885 36.9555 31.7691 37.1286C31.5894 37.1665 31.3874 37.3074 31.2838 37.4605C30.8142 38.1543 30.3894 38.8787 29.9146 39.5687C29.8255 39.6981 29.5647 39.8063 29.4105 39.7775C28.6201 39.63 27.8429 39.4102 27.0515 39.2703C26.81 39.2277 26.4938 39.2895 26.2876 39.4218C25.5149 39.9172 24.7733 40.4615 24.0024 41C23.2347 40.4631 22.4941 39.9183 21.7218 39.4229C21.5163 39.2911 21.2003 39.2327 20.9585 39.2749C20.183 39.4104 19.4163 39.5998 18.651 39.7877C18.3724 39.8562 18.2035 39.8084 18.047 39.5446C17.6446 38.8665 17.1943 38.2168 16.7911 37.539C16.6245 37.2588 16.4144 37.1202 16.1004 37.0706C15.3216 36.9474 14.5489 36.7846 13.7682 36.677C13.4603 36.6346 13.3627 36.51 13.3203 36.2174C13.2097 35.4536 13.0515 34.6967 12.9315 33.9339C12.88 33.6057 12.7543 33.376 12.4492 33.1989C11.7816 32.8116 11.1484 32.3652 10.4849 31.9703C10.214 31.8091 10.1377 31.6444 10.2175 31.3345C10.4098 30.5872 10.5905 29.8347 10.718 29.0746C10.7612 28.8176 10.7041 28.4849 10.566 28.2673C10.0826 27.5053 9.54358 26.7782 9 26.0013ZM22.3924 17.38C20.2025 18.1038 19.2626 19.4014 19.2628 21.676C19.2628 22.3667 19.251 23.0577 19.2683 23.748C19.3142 25.5878 20.6451 27.1809 22.4629 27.4827C23.1854 27.6026 23.9358 27.5542 24.6737 27.5792C25.2632 27.5992 25.5666 27.8773 25.5759 28.4511C25.588 29.1909 25.5888 29.9312 25.5753 30.6711C25.5653 31.2206 25.2632 31.5101 24.7074 31.5253C24.3131 31.5361 23.9181 31.5285 23.5235 31.5277C22.7071 31.5261 22.5227 31.3647 22.4118 30.5573C22.2955 29.7097 21.5571 29.1009 20.7208 29.163C19.9025 29.2238 19.2601 29.9024 19.2726 30.7469C19.2782 31.1196 19.3332 31.5043 19.4411 31.8607C19.8894 33.3416 20.9273 34.2152 22.4225 34.6256C22.4225 34.9243 22.4124 35.2191 22.4245 35.513C22.4596 36.372 23.1401 37.0423 23.9778 37.0536C24.8372 37.0652 25.5393 36.3907 25.5759 35.5088C25.5882 35.215 25.5779 34.9203 25.5779 34.6297C27.3596 34.1201 28.4845 33.0097 28.693 31.1828C28.8152 30.1119 28.7952 29.0085 28.6986 27.9325C28.5389 26.1564 27.2263 24.7869 25.4642 24.5028C24.7732 24.3913 24.056 24.4412 23.3505 24.4213C22.73 24.4038 22.4321 24.1273 22.4238 23.5235C22.4139 22.8001 22.4132 22.0763 22.4242 21.3529C22.433 20.7748 22.7317 20.4868 23.3179 20.4747C23.7453 20.4659 24.173 20.4697 24.6005 20.4735C25.2654 20.4794 25.5087 20.7034 25.5829 21.3693C25.6823 22.2601 26.3991 22.8895 27.2554 22.838C28.1088 22.7867 28.7649 22.0743 28.7305 21.1765C28.6742 19.6999 27.9961 18.5723 26.7181 17.8299C26.3701 17.6278 25.9756 17.5057 25.6038 17.3475C25.4787 15.5961 25.0413 14.9438 23.9957 14.9465C22.9512 14.9492 22.5341 15.5756 22.3924 17.38Z" fill="white"/>
<path d="M0 24.1322C1.76139 24.1322 3.37138 24.1322 5.11502 24.1322C5.11502 25.2413 5.02886 26.3352 5.12933 27.4114C5.69692 33.4942 8.48833 38.3266 13.5315 41.6873C24.1164 48.7407 38.1662 43.7351 42.1141 31.5845C45.6611 20.6678 38.5898 8.83576 27.3242 6.96794C25.1855 6.61337 22.9823 6.65261 20.7447 6.5059C20.7447 7.16692 20.7447 7.67596 20.7447 8.31576C18.7705 6.89514 16.8942 5.54481 14.9458 4.14263C16.8787 2.75112 18.7547 1.40038 20.6998 0C20.6998 0.580037 20.6998 1.07299 20.6998 1.64651C20.937 1.64651 21.1346 1.64596 21.3322 1.64665C23.4805 1.65303 25.6319 1.57357 27.7645 1.94506C35.1064 3.22369 40.7414 7.06902 44.6018 13.4698C47.3208 17.9781 48.4697 22.9372 47.8248 28.1646C46.5995 38.0969 41.2997 45.0693 31.9639 48.4697C23.7489 51.4618 15.9693 50.0149 9.08317 44.5794C4.01453 40.5786 1.10489 35.23 0.290399 28.7783C0.0984055 27.2574 0.0935884 25.7127 0 24.1322Z" fill="white"/>
</svg>
