<svg width="54" height="39" viewBox="0 0 54 39" fill="none" xmlns="http://www.w3.org/2000/svg">
<path d="M35.441 26.9659C32.7384 26.9659 30.128 26.9313 27.5193 26.9831C26.4725 27.0038 25.6428 26.7923 24.7653 26.1168C21.9289 23.9336 17.929 24.2273 15.2711 26.6544C15.1221 26.7903 14.9166 26.9503 14.7359 26.9522C12.6721 26.973 10.6081 26.9655 8.50235 26.9655C8.50235 24.1513 8.50235 21.3728 8.50235 18.5583C12.2077 18.3914 15.1512 16.8338 17.0736 13.6406C18.984 10.4676 18.9776 7.15614 17.3976 3.73762C17.6433 3.73762 17.8341 3.73762 18.0248 3.73762C22.9016 3.73762 27.7782 3.73661 32.6549 3.7382C34.48 3.73878 35.44 4.69711 35.4403 6.51934C35.4416 13.1183 35.4408 19.7172 35.4408 26.3162C35.441 26.511 35.441 26.7061 35.441 26.9659Z" fill="white"/>
<path d="M8.45189 16.8989C3.85591 16.9362 0.046835 13.1667 0.000427145 8.53519C-0.0461258 3.88439 3.71857 0.0306474 8.33848 0.00019224C13.0442 -0.030843 16.8558 3.69977 16.89 8.37029C16.9247 13.0958 13.2 16.8603 8.45189 16.8989ZM7.32084 9.33253C6.77352 8.75838 6.25911 8.20134 5.72499 7.66417C5.24814 7.18457 4.72345 7.15035 4.34827 7.54409C3.99035 7.91985 4.03806 8.42743 4.48996 8.88499C5.17752 9.58111 5.86972 10.2727 6.56584 10.9603C7.093 11.4811 7.51358 11.4902 8.0754 10.9938C9.09362 10.0941 10.1073 9.18896 11.1227 8.28589C11.5152 7.93667 11.9096 7.58933 12.2994 7.23707C12.8419 6.74689 12.9308 6.24147 12.5522 5.83149C12.1782 5.42644 11.706 5.45573 11.1694 5.92126C10.9231 6.13503 10.6819 6.35474 10.4379 6.57097C9.42341 7.47013 8.40867 8.36884 7.32084 9.33253Z" fill="white"/>
<path d="M37.0334 32.1642C36.7484 32.1642 36.5337 32.1642 36.3193 32.1642C33.6913 32.1642 31.0633 32.1548 28.4356 32.1736C28.0118 32.1767 27.9193 32.0399 27.8511 31.6336C27.6823 30.6274 27.4188 29.6372 27.1862 28.6082C30.3909 28.6082 33.6949 28.6082 37.0624 28.6082C37.0624 22.5663 37.0624 16.5791 37.0624 10.5609C37.2819 10.5481 37.4399 10.531 37.5978 10.5309C40.2258 10.5293 42.8538 10.5415 45.4815 10.5206C46.0671 10.5159 46.4804 10.7158 46.8161 11.1849C47.246 11.7853 47.7124 12.3596 48.2122 13.0091C47.9875 13.0244 47.836 13.0437 47.6844 13.0439C45.9989 13.046 44.3135 13.0404 42.628 13.0468C41.2312 13.052 40.3666 13.9248 40.3607 15.3279C40.3557 16.4696 40.3554 17.6114 40.3608 18.7532C40.3673 20.1578 41.2223 21.0096 42.6412 21.0117C46.1753 21.0168 49.7094 21.0134 53.2435 21.0134C53.4573 21.0134 53.6712 21.0134 53.9556 21.0134C53.9556 21.2534 53.9556 21.4456 53.9556 21.6376C53.9556 24.628 53.9557 27.6184 53.9556 30.6088C53.9554 31.9023 53.486 32.295 52.0982 32.1088C51.9818 29.6373 51.0007 27.5781 48.9732 26.0835C47.5672 25.047 45.976 24.5845 44.2301 24.659C42.2358 24.7442 40.5417 25.5159 39.1564 26.9388C37.7697 28.3637 37.0915 30.1014 37.0334 32.1642Z" fill="white"/>
<path d="M26.2593 32.1576C26.2704 35.4035 23.6357 38.0554 20.3986 38.057C17.1811 38.0585 14.5299 35.4456 14.4961 32.2394C14.4616 28.973 17.0861 26.3197 20.3719 26.2994C23.619 26.2793 26.2483 28.8955 26.2593 32.1576Z" fill="white"/>
<path d="M38.6819 32.1461C38.7299 28.8082 41.3592 26.2519 44.6933 26.3015C47.8954 26.3492 50.5022 29.0465 50.4439 32.2519C50.3848 35.5008 47.7157 38.0979 44.4779 38.0569C41.2629 38.0163 38.636 35.3374 38.6819 32.1461Z" fill="white"/>
<path d="M53.0473 19.2732C51.7679 19.2732 50.6278 19.2732 49.4876 19.2732C47.276 19.2732 45.0644 19.2741 42.8528 19.2726C42.1375 19.2722 42.102 19.2372 42.1007 18.5463C42.0988 17.4949 42.111 16.4433 42.0953 15.3921C42.0886 14.948 42.2682 14.7786 42.7098 14.7808C44.8851 14.7919 47.0605 14.7822 49.2359 14.7931C49.3961 14.7938 49.6177 14.8495 49.7065 14.9621C50.8026 16.3531 51.8793 17.7593 53.0473 19.2732Z" fill="white"/>
<path d="M13.5998 28.6116C13.307 29.7837 13.0203 30.9312 12.7123 32.1641C12.093 32.1641 11.373 32.1641 10.6528 32.1641C9.71013 32.1641 8.76747 32.1702 7.82495 32.1622C6.92855 32.1545 6.53017 31.7525 6.52307 30.8657C6.51987 30.4669 6.51045 30.0675 6.52858 29.6695C6.55424 29.1076 6.91695 28.6316 7.44455 28.6239C9.52058 28.594 11.5973 28.6116 13.5998 28.6116Z" fill="white"/>
</svg>
