<svg width="50" height="50" viewBox="0 0 50 50" fill="none" xmlns="http://www.w3.org/2000/svg">
<path d="M31.3473 0C31.8825 0.181922 32.4472 0.305375 32.9473 0.556967C34.3518 1.26356 35.2389 2.40979 35.55 3.95554C35.8128 5.26142 36.0714 6.57199 36.2381 7.89246C36.6284 10.9845 33.8851 13.4249 30.8372 12.733C29.3163 12.3878 27.7988 12.0271 26.2795 11.6748C26.1394 11.6423 25.9969 11.62 25.8088 11.5839C25.5038 12.7495 25.2032 13.8923 24.9058 15.0359C24.2517 17.5513 23.6017 20.0678 22.9442 22.5823C22.7571 23.298 22.2811 23.6711 21.6245 23.6456C21.0361 23.6227 20.5284 23.2023 20.4527 22.5999C20.4176 22.3211 20.4799 22.0179 20.5516 21.7397C21.549 17.8699 22.5558 14.0027 23.5594 10.1345C23.592 10.0091 23.6111 9.88032 23.6433 9.75479C23.8426 8.97813 24.5633 8.59749 25.3386 8.79088C27.4023 9.30526 29.4673 9.81756 31.5434 10.278C32.8001 10.5567 33.9355 9.44369 33.7349 8.17726C33.5418 6.95746 33.3266 5.74065 33.0957 4.52723C32.8495 3.23345 31.7196 2.40784 30.375 2.55473C29.0014 2.70488 27.6324 2.89682 26.2615 3.07288C25.1652 3.21379 24.0638 3.32487 22.9747 3.50888C21.2458 3.80097 19.8126 4.65601 18.8125 6.08899C13.8471 13.2034 9.17529 20.4997 5.63907 28.4506C4.52618 30.9527 3.6404 33.5586 2.72167 36.1423C2.51839 36.7139 2.52751 37.4014 2.59184 38.0196C2.73014 39.3486 3.58375 40.2308 4.75772 40.6852C5.96124 41.1512 7.23262 41.4552 8.49071 41.7636C10.708 42.307 12.8587 43.0312 14.9178 44.0149C18.1058 45.5379 21.4266 46.6337 24.9288 47.1376C30.3974 47.9241 35.7008 47.2867 40.7941 45.1423C42.3171 44.501 43.7674 43.6851 45.242 42.9315C46.1219 42.4818 46.9895 42.8048 47.2103 43.6951C47.3485 44.2521 47.1045 44.7715 46.5213 45.1183C44.6453 46.2337 42.6896 47.1848 40.6432 47.9457C37.6997 49.0401 34.6656 49.7175 31.5286 49.9206C31.4019 49.9288 31.2775 49.9727 31.1521 50C29.9802 50 28.8083 50 27.6364 50C27.4942 49.9736 27.3529 49.9321 27.2096 49.9229C22.7441 49.6352 18.5026 48.4829 14.4621 46.5846C12.0405 45.447 9.54747 44.5384 6.91761 44.0199C5.55716 43.7516 4.23083 43.3779 3.03004 42.6524C1.67142 41.8315 0.680939 40.7136 0.231668 39.1637C0.147022 38.8717 0.0768319 38.5755 0 38.2812C0 37.7279 0 37.1744 0 36.6211C0.0872498 36.2281 0.135172 35.8213 0.26826 35.4445C0.965608 33.4715 1.608 31.4744 2.40888 29.5434C6.14773 20.5294 11.3362 12.3422 16.9282 4.39739C18.1146 2.71165 19.8237 1.60748 21.847 1.18595C23.6394 0.812464 25.4754 0.649034 27.2919 0.390671C28.1883 0.263182 29.0841 0.130613 29.9801 0.000389463C30.4359 -1.20807e-06 30.8915 0 31.3473 0Z" fill="black"/>
<path d="M49.9995 25.0974C49.6719 25.7638 49.1439 26.0107 48.3972 26.0388C45.5183 26.1472 43.0379 27.2348 40.9482 29.2169C40.3695 29.7658 39.7035 29.738 39.0342 29.1823C37.0355 27.523 34.7874 26.3559 32.2183 25.8919C28.9233 25.297 26.0505 26.2575 23.5191 28.3724C21.6726 29.9151 20.2692 31.82 19.0382 33.866C18.6464 34.5173 18.1449 34.7499 17.544 34.5898C16.7777 34.3856 16.3207 33.5441 16.7166 32.8649C19.0127 28.9256 21.8146 25.4914 26.2891 23.8891C29.7711 22.6422 33.1821 23.0746 36.4723 24.6091C37.6888 25.1765 38.8295 25.9068 39.9215 26.5164C41.1437 25.8509 42.3499 25.117 43.621 24.5216C45.1691 23.7965 46.8387 23.5266 48.5486 23.4846C49.2662 23.467 49.696 23.8232 49.9996 24.4139C49.9995 24.6417 49.9995 24.8696 49.9995 25.0974Z" fill="#575857"/>
<path d="M33.1037 43.3175C31.118 43.3039 29.3523 42.9754 27.6319 42.3881C26.8279 42.1135 26.4474 41.452 26.6838 40.732C26.9082 40.0488 27.6151 39.7176 28.3967 39.9763C30.2219 40.5804 32.0803 40.909 34.0085 40.73C36.6484 40.4852 38.9322 39.4726 40.7869 37.5564C41.1676 37.1632 41.5842 36.9476 42.1345 37.0946C43.0763 37.3463 43.3833 38.4237 42.7114 39.1921C41.7688 40.2701 40.6223 41.0981 39.3631 41.7625C37.3559 42.8216 35.2059 43.3215 33.1037 43.3175Z" fill="#575857"/>
</svg>
