<svg width="50" height="52" viewBox="0 0 50 52" fill="none" xmlns="http://www.w3.org/2000/svg">
<path d="M12.2909 48.4409C22.8414 44.022 30.8716 35.451 36.4 25.5273C39.336 26.3389 42.2461 26.8181 45.3818 26.9455C44.9798 27.7335 44.6584 29.8906 44.2544 30.5683C43.0551 32.5798 41.8325 34.578 40.5915 36.564C40.4506 36.7895 40.1575 36.9802 39.8959 37.0611C37.4538 37.8164 35.0032 38.544 32.5554 39.28C32.4043 39.3254 32.254 39.373 32.0975 39.5279C33.9524 39.7978 35.8072 40.0676 37.7088 40.3443C31.9582 45.7959 25.263 48.8154 17.2985 48.8858C17.2985 49.4559 17.2985 49.9805 17.2985 50.5818C15.6223 49.8653 14.0141 49.1777 12.2909 48.4409Z" fill="#575857"/>
<path d="M36.8727 24.2329C41.3078 16.7069 44.2151 8.66602 45.6431 0C45.7904 0.174561 45.892 0.276734 45.9723 0.392971C48.0036 3.33046 49.0692 6.57804 49.1476 10.1309C49.1541 10.4285 49.0419 10.7766 48.8692 11.022C47.7127 12.6629 46.5247 14.2819 45.3477 15.9085C45.2482 16.046 45.1551 16.1882 44.998 16.4173C46.4193 16.1407 47.7428 15.8833 49.1637 15.6068C48.8759 16.5818 48.652 17.5103 48.328 18.4037C47.512 20.6534 46.6502 22.8871 45.8084 25.1277C45.719 25.3657 45.6207 25.5392 45.2967 25.5266C42.4935 25.4187 39.7304 25.0551 37.0238 24.3126C36.9914 24.3035 36.9627 24.2809 36.8727 24.2329Z" fill="#575857"/>
<path d="M35.8653 21.7454C35.7657 20.9056 35.6654 20.066 35.5669 19.2261C35.3696 17.5454 35.1663 15.8653 34.9862 14.1829C34.9656 13.9917 35.0181 13.7465 35.1366 13.5958C38.0249 9.92646 40.7255 6.13948 43.2275 2.22661C43.2792 2.14584 43.3465 2.07388 43.4909 1.8909C42.1037 8.98853 39.6098 15.5675 35.8653 21.7454Z" fill="black"/>
<path d="M18.6032 36.2536C18.8261 35.0559 19.0508 33.8586 19.2714 32.6605C19.5577 31.1062 19.8338 29.5497 20.1337 27.9985C20.1716 27.8021 20.2858 27.5597 20.434 27.4608C23.4767 25.43 26.0451 22.8332 28.2613 19.8112C28.304 19.7529 28.3369 19.6862 28.4601 19.4795C29.0208 21.892 29.5433 24.1409 30.0659 26.3896C30.1023 26.3891 30.1387 26.3888 30.1751 26.3885C30.329 25.5004 30.4873 24.6132 30.6359 23.724C30.9946 21.5768 31.2781 19.4106 31.7418 17.2908C31.9118 16.5137 32.5049 15.8453 32.9051 15.1273C32.9615 15.1507 33.0177 15.174 33.0741 15.1975C33.1548 15.9303 33.2399 16.6626 33.3156 17.3958C33.5585 19.7511 33.8023 22.1064 34.0312 24.4631C34.0512 24.6695 34.0123 24.9169 33.9205 25.0971C29.2435 34.2769 22.611 41.2379 13.8741 45.7981C12.8862 46.3136 11.8705 46.7665 10.8172 47.2727C10.3606 45.7884 9.92322 44.3667 9.45453 42.8427C10.3248 43.1532 11.1004 43.43 11.9342 43.7274C13.5662 39.0138 15.1952 34.308 16.8244 29.6024C16.8617 29.5971 16.8987 29.5918 16.936 29.5864C17.4514 31.8069 17.9669 34.0272 18.4823 36.2476C18.5223 36.2494 18.5627 36.2515 18.6032 36.2536Z" fill="black"/>
<path d="M0.510438 52C0.325542 51.4541 0.172253 51.0013 0 50.4925C3.71257 49.421 7.40331 48.3558 11.1565 47.2727C11.2743 47.8129 11.5564 48.2848 12.2909 48.4136C8.46384 49.886 4.4648 50.7957 0.510438 52Z" fill="black"/>
</svg>
