<svg width="38" height="30" viewBox="0 0 38 30" fill="none" xmlns="http://www.w3.org/2000/svg">
<path d="M37.5187 20.5437C37.0962 22.0889 36.6713 23.6333 36.2519 25.1793C35.9038 26.4626 35.1546 27.1033 33.8298 27.2814C33.6922 27.2999 33.5356 27.4631 33.4582 27.5991C32.7349 28.8703 31.6917 29.7004 30.2321 29.9421C28.4399 30.239 27.1429 29.2352 26.9467 27.4255C26.9424 27.3859 26.9269 27.3476 26.9067 27.2707C26.7694 27.2707 26.6303 27.2707 26.4912 27.2707C21.9427 27.2707 17.394 27.2741 12.8455 27.2633C12.5349 27.2625 12.3779 27.3502 12.2302 27.6319C11.4041 29.2067 9.58663 30.2087 8.0615 29.963C6.69923 29.7437 5.90266 28.8894 5.77051 27.5069C5.76516 27.4513 5.75538 27.3962 5.74139 27.2963C5.60685 27.2877 5.47151 27.2724 5.33605 27.2719C4.61113 27.2693 3.88599 27.2813 3.16129 27.2675C2.25998 27.2504 1.7458 26.6302 1.96371 25.7678C2.36348 24.186 2.79873 22.613 3.23033 21.0393C3.34429 20.6236 3.66751 20.4445 4.03805 20.5475C4.38811 20.6448 4.55586 20.9753 4.44418 21.4008C4.08752 22.7596 3.72142 24.1158 3.35976 25.4733C3.31984 25.623 3.28481 25.774 3.23169 25.988C4.14666 25.988 5.03228 25.9984 5.917 25.973C6.01264 25.9703 6.11954 25.7704 6.19233 25.6451C7.0369 24.1932 8.24393 23.2966 9.96684 23.2652C11.4987 23.2373 12.5449 24.2143 12.6931 25.7366C12.6999 25.8061 12.7089 25.8754 12.7196 25.9674C15.9359 25.9674 19.1439 25.9674 22.4122 25.9674C23.8739 20.5133 25.3408 15.0397 26.824 9.50571C26.6245 9.49434 26.4771 9.47899 26.3297 9.47876C25.1216 9.47671 23.9133 9.47955 22.7051 9.47659C22.1584 9.47523 21.8858 9.253 21.8953 8.83003C21.9041 8.42822 22.177 8.2027 22.6939 8.20043C24.03 8.19463 25.3662 8.19667 26.7023 8.19883C27.6935 8.20042 28.064 8.53627 28.1664 9.56997C28.3113 9.56997 28.4625 9.56997 28.6137 9.56997C30.0351 9.56997 31.4565 9.56758 32.878 9.57076C34.1638 9.57361 34.7788 10.1937 34.7832 11.4863C34.7895 13.3342 34.8002 15.182 34.7927 17.0299C34.7915 17.3047 34.8756 17.4736 35.1018 17.6238C35.575 17.9379 36.0196 18.2955 36.496 18.6043C36.9781 18.9168 37.3499 19.3022 37.5189 19.8614C37.5187 20.0888 37.5187 20.3163 37.5187 20.5437ZM25.2024 20.5225C26.3021 20.5225 27.3367 20.5225 28.3714 20.5225C29.7359 20.5226 31.1003 20.5194 32.4647 20.5247C32.925 20.5266 33.1775 20.7434 33.1951 21.1218C33.2134 21.5152 32.9486 21.7702 32.4861 21.7994C32.3728 21.8066 32.2588 21.8018 32.145 21.8018C29.8425 21.8019 27.5399 21.8082 25.2376 21.7942C24.9384 21.7924 24.8175 21.8845 24.7457 22.1683C24.4675 23.2686 24.1654 24.3629 23.8746 25.4602C23.8321 25.6208 23.8023 25.7848 23.7568 25.9917C24.7972 25.9917 25.7903 25.9795 26.7828 25.9988C27.0895 26.0047 27.2516 25.9217 27.4044 25.636C28.071 24.3892 29.1024 23.5744 30.4992 23.3171C32.6647 22.9181 33.8639 24.3732 33.8788 25.7544C33.8795 25.8187 33.9115 25.8825 33.9321 25.9586C34.4043 25.8861 34.7555 25.644 34.8819 25.234C35.2267 24.1166 35.5168 22.9824 35.836 21.828C35.578 21.8065 35.3776 21.8107 35.1871 21.7695C34.8313 21.6929 34.6505 21.4549 34.6839 21.0903C34.7154 20.7455 34.9234 20.5548 35.2694 20.5291C35.425 20.5175 35.5853 20.5435 35.7373 20.5171C35.9011 20.4887 36.0577 20.4189 36.2174 20.367C36.1306 20.177 36.0937 19.9245 35.9482 19.8081C35.4164 19.383 34.86 18.9851 34.2878 18.6158C34.0772 18.4799 33.7981 18.389 33.5485 18.3849C32.1986 18.3627 30.8481 18.3823 29.4979 18.3719C28.173 18.3618 27.4616 17.4385 27.7832 16.157C27.949 15.4965 28.1238 14.8381 28.3084 14.1826C28.6211 13.0725 29.5667 12.3401 30.7222 12.3108C31.1909 12.2989 31.6603 12.3082 32.1293 12.308C32.5774 12.3079 33.0255 12.308 33.5043 12.308C33.5043 12.0019 33.5053 11.7627 33.5041 11.5236C33.5011 10.9153 33.4368 10.8506 32.8111 10.8499C31.2761 10.8484 29.741 10.8605 28.2063 10.8408C27.8659 10.8365 27.7519 10.9571 27.6696 11.2708C27.0109 13.7823 26.3322 16.2885 25.6604 18.7966C25.511 19.3535 25.3644 19.9113 25.2024 20.5225ZM33.4997 13.5876C32.6064 13.5876 31.7312 13.5827 30.856 13.5891C30.1283 13.5944 29.6991 13.9322 29.5063 14.6405C29.3502 15.214 29.1996 15.789 29.0493 16.364C28.8962 16.9495 28.9995 17.0921 29.591 17.0938C30.7676 17.0972 31.9442 17.0956 33.1208 17.0937C33.2442 17.0935 33.3675 17.0777 33.4998 17.0686C33.4997 15.9042 33.4997 14.7732 33.4997 13.5876ZM9.93613 24.5376C8.66314 24.5454 7.29894 25.6894 7.07557 26.9362C6.87518 28.0553 7.57928 28.8308 8.68759 28.7115C9.94181 28.5765 11.1087 27.5315 11.3736 26.3058C11.596 25.2774 10.9894 24.5311 9.93613 24.5376ZM32.603 25.9751C32.6286 25.1343 32.1041 24.5729 31.2619 24.5397C29.8565 24.4842 28.3827 25.7511 28.2344 27.1423C28.141 28.0179 28.6849 28.6566 29.5756 28.7176C30.982 28.8136 32.5602 27.384 32.603 25.9751Z" fill="black"/>
<path d="M10.2335 20.4292C4.64145 20.4555 0.0239766 15.8643 9.31335e-05 10.2541C-0.0237903 4.64557 4.54898 0.0271899 10.153 0.000121917C15.8056 -0.0272872 20.4305 4.57039 20.429 10.2158C20.4275 15.828 15.8609 20.4029 10.2335 20.4292ZM19.1497 10.2286C19.1674 5.34501 15.1678 1.30837 10.2828 1.27936C5.34806 1.25002 1.2981 5.25221 1.27956 10.1766C1.26091 15.1035 5.28209 19.144 10.2096 19.15C15.1159 19.1559 19.132 15.1484 19.1497 10.2286Z" fill="black"/>
<path d="M10.1491 12.2104C10.0785 12.2043 9.96422 12.2249 9.8829 12.1825C9.38407 11.922 9.08383 12.1953 8.78289 12.5457C8.54304 12.825 8.2702 13.0772 8.00293 13.3318C7.67459 13.6446 7.28472 13.6604 7.02313 13.3844C6.76007 13.1066 6.77782 12.765 7.09069 12.441C7.44576 12.0732 7.80697 11.7107 8.1766 11.3576C8.33423 11.207 8.40315 11.0801 8.32376 10.8436C8.06605 10.0761 8.23016 9.37707 8.79916 8.80466C9.36861 8.2318 10.0676 8.06848 10.8362 8.3196C11.0667 8.39489 11.1955 8.34041 11.3518 8.18221C12.3805 7.14191 13.4195 6.11174 14.451 5.07429C14.7208 4.80304 15.0119 4.67987 15.3599 4.91017C15.7181 5.14719 15.7224 5.60802 15.362 5.97162C14.362 6.9803 13.3584 7.98557 12.3474 8.98333C12.1336 9.1943 12.031 9.35614 12.1361 9.70291C12.5217 10.9756 11.5116 12.2372 10.1491 12.2104ZM10.9291 10.2229C10.9338 9.8172 10.6126 9.48807 10.2131 9.48909C9.81841 9.49 9.4829 9.83097 9.48939 10.2245C9.49576 10.6075 9.80727 10.919 10.1936 10.9286C10.6083 10.9388 10.9243 10.6355 10.9291 10.2229Z" fill="black"/>
<path d="M10.8486 3.71634C10.8487 4.40611 10.65 4.70193 10.1954 4.6893C9.75827 4.67713 9.56948 4.38508 9.56937 3.721C9.56925 3.05568 9.79364 2.72369 10.2336 2.73837C10.6564 2.75247 10.8485 3.05784 10.8486 3.71634Z" fill="black"/>
<path d="M3.70606 10.8422C3.05529 10.8486 2.74424 10.6466 2.73878 10.2211C2.73332 9.79336 3.0579 9.57068 3.69081 9.57068C3.83218 9.57068 3.97549 9.56442 4.11446 9.58433C4.49 9.63801 4.71382 9.89538 4.68767 10.2481C4.6606 10.6134 4.44713 10.8081 4.08774 10.8405C3.96161 10.8519 3.83344 10.8422 3.70606 10.8422Z" fill="black"/>
<path d="M16.6846 10.8379C16.5576 10.8379 16.4292 10.8497 16.3037 10.8356C15.9595 10.7967 15.764 10.5921 15.7454 10.2517C15.7258 9.88984 15.9138 9.6468 16.271 9.59687C16.5479 9.5582 16.8369 9.55854 17.1153 9.58914C17.4698 9.62815 17.671 9.85288 17.6784 10.2174C17.6856 10.5682 17.4479 10.8065 17.066 10.8412C16.9398 10.8527 16.8119 10.843 16.6847 10.843C16.6846 10.8413 16.6846 10.8396 16.6846 10.8379Z" fill="black"/>
<path d="M10.8481 16.7068C10.8487 17.3931 10.6462 17.6955 10.196 17.6819C9.76584 17.669 9.56944 17.3649 9.56932 16.7116C9.56932 16.6268 9.56613 16.5417 9.57068 16.4572C9.5957 15.9957 9.84228 15.7299 10.2331 15.7406C10.6112 15.7509 10.8291 16.0026 10.8472 16.4524C10.8506 16.537 10.8477 16.622 10.8481 16.7068Z" fill="black"/>
</svg>
