<svg width="43" height="31" viewBox="0 0 43 31" fill="none" xmlns="http://www.w3.org/2000/svg">
<path d="M0.000244141 1.482C0.293889 0.745762 0.844555 0.508786 1.621 0.511249C7.60768 0.530064 13.5944 0.521663 19.581 0.521663C19.7587 0.521663 19.9364 0.521663 20.1349 0.521663C20.1349 5.56995 20.1349 10.571 20.1349 15.6071C19.9731 15.6145 19.8244 15.6271 19.6757 15.6271C13.2554 15.6281 6.83504 15.6282 0.414727 15.6264C0.276529 15.6264 0.138443 15.6036 0.000244141 15.5914C0.000244141 10.8881 0.000244141 6.18502 0.000244141 1.482ZM3.77854 3.0322C3.77697 2.34647 3.2067 1.78203 2.51683 1.78348C1.82673 1.78505 1.25915 2.35207 1.26094 3.03814C1.26274 3.72443 1.833 4.28898 2.52265 4.28741C3.21253 4.28585 3.77999 3.71861 3.77854 3.0322ZM7.57296 1.7836C6.88331 1.77564 6.308 2.33493 6.30016 3.02111C6.29232 3.70696 6.85498 4.27958 7.5444 4.28753C8.23416 4.29548 8.80891 3.73652 8.81731 3.04945C8.8256 2.36405 8.26295 1.79155 7.57296 1.7836ZM12.5769 4.28753C13.2668 4.29895 13.8441 3.74324 13.8562 3.05606C13.8683 2.37066 13.3085 1.79502 12.6187 1.7836C11.9291 1.77217 11.3509 2.32844 11.3394 3.01451C11.3278 3.70035 11.8876 4.2761 12.5769 4.28753ZM18.8952 3.05359C18.9058 2.36809 18.3451 1.79379 17.6551 1.7836C16.9656 1.77341 16.3885 2.3309 16.3783 3.01697C16.3682 3.70293 16.9288 4.27734 17.6184 4.28753C18.3081 4.29761 18.8845 3.74055 18.8952 3.05359ZM5.03095 6.80702C5.72083 6.81161 6.293 6.24986 6.29792 5.5629C6.30285 4.87739 5.73751 4.3078 5.04741 4.30309C4.35765 4.29839 3.78503 4.86048 3.78055 5.54666C3.77596 6.2325 4.34141 6.80232 5.03095 6.80702ZM10.0661 4.30309C9.3766 4.30959 8.81272 4.88131 8.81966 5.56693C8.8266 6.25333 9.40079 6.81363 10.0903 6.80702C10.7802 6.8003 11.3435 6.22892 11.3368 5.54263C11.3302 4.85678 10.7558 4.2966 10.0661 4.30309ZM15.1354 6.80702C15.8254 6.79705 16.3858 6.22298 16.3757 5.53658C16.3655 4.85063 15.7886 4.29335 15.0991 4.30309C14.4098 4.31295 13.8485 4.88758 13.8588 5.57309C13.8691 6.25927 14.4462 6.81699 15.1354 6.80702ZM3.7782 8.08911C3.78694 7.40372 3.22451 6.83099 2.53452 6.82259C1.84487 6.8143 1.26934 7.37337 1.26106 8.05944C1.25288 8.74528 1.8152 9.31823 2.50462 9.32652C3.1945 9.33481 3.76947 8.77607 3.7782 8.08911ZM7.57643 6.82259C6.88689 6.81274 6.31002 7.37057 6.30027 8.05664C6.29053 8.74259 6.85139 9.31666 7.54104 9.32652C8.2308 9.33626 8.80689 8.77899 8.8172 8.09191C8.8275 7.40641 8.26642 6.83245 7.57643 6.82259ZM13.8563 8.09068C13.8659 7.40518 13.3042 6.83178 12.6142 6.82259C11.9248 6.81352 11.3483 7.37203 11.3393 8.05798C11.3302 8.74383 11.8918 9.31745 12.5813 9.32652C13.271 9.33559 13.8467 8.77765 13.8563 8.09068ZM18.8955 8.08295C18.9008 7.39745 18.3356 6.82763 17.6456 6.82259C16.9559 6.81766 16.383 7.37964 16.3783 8.06571C16.3734 8.75155 16.9387 9.3217 17.6282 9.32652C18.318 9.33145 18.8903 8.7698 18.8955 8.08295ZM6.2977 10.6102C6.30733 9.92468 5.74558 9.35127 5.05559 9.34209C4.36616 9.33302 3.78974 9.89152 3.78067 10.5775C3.7716 11.2633 4.33324 11.8369 5.02266 11.846C5.71243 11.8552 6.28807 11.2971 6.2977 10.6102ZM11.3367 10.575C11.3263 9.88906 10.7492 9.33201 10.0595 9.34209C9.37022 9.35217 8.80925 9.92702 8.81977 10.6126C8.83041 11.2988 9.40773 11.8563 10.0969 11.846C10.7869 11.8357 11.3471 11.2614 11.3367 10.575ZM16.3758 10.6086C16.3845 9.9231 15.8221 9.35049 15.1321 9.34209C14.4425 9.3338 13.8669 9.89286 13.8588 10.5789C13.8506 11.2648 14.4129 11.8377 15.1024 11.8459C15.7922 11.8543 16.3671 11.2956 16.3758 10.6086ZM2.52321 11.8617C1.83323 11.8596 1.26274 12.4237 1.26094 13.11C1.25904 13.7961 1.82639 14.3636 2.51616 14.3656C3.20614 14.3676 3.77619 13.8036 3.77854 13.1168C3.78078 12.4311 3.21331 11.8637 2.52321 11.8617ZM7.56221 11.8617C6.87222 11.8596 6.30173 12.4237 6.29994 13.11C6.29804 13.7961 6.86539 14.3636 7.55515 14.3656C8.24514 14.3676 8.81518 13.8036 8.81753 13.1168C8.81977 12.4311 8.25242 11.8637 7.56221 11.8617ZM12.5965 14.3655C13.2864 14.3662 13.8556 13.801 13.8566 13.1144C13.8575 12.4287 13.2891 11.8625 12.599 11.8616C11.909 11.8608 11.3395 12.4259 11.3389 13.1122C11.3384 13.7983 11.9068 14.3648 12.5965 14.3655ZM18.8953 13.1297C18.9049 12.4442 18.3432 11.8708 17.6532 11.8616C16.9638 11.8524 16.3873 12.411 16.3783 13.097C16.3692 13.7828 16.9308 14.3564 17.6203 14.3655C18.31 14.3747 18.8857 13.8167 18.8953 13.1297Z" fill="white"/>
<path d="M0.000183105 18.1113C0.194266 18.1235 0.388351 18.1464 0.582546 18.1464C14.5275 18.1516 28.4726 18.1549 42.4176 18.1602C42.6117 18.1603 42.8059 18.183 43 18.1952C43 19.035 43 19.8749 43 20.7147C42.8338 20.7025 42.6677 20.6797 42.5016 20.6797C28.5006 20.678 14.4996 20.678 0.498661 20.6797C0.332576 20.6797 0.166381 20.7025 0.000295891 20.7147C0.000183898 19.847 0.000183105 18.9792 0.000183105 18.1113Z" fill="white"/>
<path d="M0.000112785 23.2341C0.165974 23.2209 0.331834 23.1962 0.497695 23.1962C14.4992 23.1944 28.5008 23.1944 42.5022 23.1962C42.6681 23.1962 42.8339 23.2209 42.9998 23.2341C42.9998 24.074 42.9998 24.9138 42.9998 25.7536C42.8338 25.7406 42.6679 25.7163 42.502 25.7163C28.5005 25.7145 14.4991 25.7145 0.497808 25.7163C0.331835 25.7163 0.165973 25.7408 0 25.7536C0.000111993 24.9139 0.000112785 24.074 0.000112785 23.2341Z" fill="white"/>
<path d="M0.000112785 28.2726C0.166198 28.2604 0.332396 28.2376 0.498481 28.2376C14.4995 28.2359 28.5004 28.2359 42.5014 28.2376C42.6676 28.2376 42.8337 28.2604 42.9998 28.2726C42.9998 28.7485 42.9998 29.2245 42.9998 29.7003C42.7043 30.4341 42.1543 30.6715 41.3783 30.6706C28.1263 30.6569 14.8742 30.6569 1.6221 30.6705C0.846217 30.6713 0.294652 30.4359 0 29.7002C0.000111993 29.2245 0.000112785 28.7485 0.000112785 28.2726Z" fill="white"/>
<path d="M43 15.6753C42.82 15.6623 42.6401 15.638 42.4602 15.638C36.0539 15.6361 29.6475 15.6363 23.2413 15.6363C23.063 15.6363 22.8848 15.6363 22.6913 15.6363C22.6913 14.7772 22.6913 13.9697 22.6913 13.1108C22.8848 13.1108 23.063 13.1108 23.2413 13.1108C29.6477 13.1108 36.054 13.1111 42.4602 13.1091C42.6401 13.1091 42.82 13.0848 43 13.0718C43 13.9396 43 14.8074 43 15.6753Z" fill="white"/>
<path d="M43 10.5518C42.8621 10.565 42.7242 10.5897 42.5864 10.5897C36.0971 10.5916 29.6079 10.5914 23.1186 10.5913C22.9935 10.5913 22.8684 10.5913 22.7097 10.5913C22.7097 9.75176 22.7097 8.93667 22.7097 8.0712C22.8874 8.0712 23.0659 8.0712 23.2444 8.0712C29.6497 8.0712 36.0551 8.07154 42.4604 8.06952C42.6403 8.06952 42.8202 8.04522 43.0001 8.03223C43 8.87206 43 9.71189 43 10.5518Z" fill="white"/>
<path d="M43 5.5137C42.8618 5.52591 42.7235 5.54875 42.5853 5.54875C36.1053 5.55054 29.6252 5.55032 23.1451 5.55032C23.0067 5.55032 22.8682 5.55032 22.703 5.55032C22.703 4.6994 22.703 3.87883 22.703 2.9942C22.8373 2.9942 22.9835 2.9942 23.1299 2.9942C29.2041 2.9942 35.2783 3.00361 41.3523 2.98244C42.1241 2.97976 42.6736 3.2127 43 3.91803C43 4.44988 43 4.98185 43 5.5137Z" fill="white"/>
</svg>
